{
  "accessors": [
    {
      "bufferView": 2,
      "componentType": 5126,
      "count": 192,
      "max": [
        1.0,
        1.0,
        1.0
      ],
      "min": [
        -1.0,
        -1.0,
        -1.0
      ],
      "type": "VEC3"
    },
    {
      "bufferView": 2,
      "byteOffset": 2304,
      "componentType": 5126,
      "count": 192,
      "max": [
        0.9951847195625305,
        0.9951848387718201,
        1.0
      ],
      "min": [
        -0.9951847195625305,
        -0.9951848387718201,
        -1.0
      ],
      "type": "VEC3"
    },
    {
      "bufferView": 1,
      "componentType": 5126,
      "count": 192,
      "max": [
        1.0,
        1.0
      ],
      "min": [
        0.0,
        0.01000000536441803
      ],
      "type": "VEC2"
    },
    {
      "bufferView": 0,
      "componentType": 5125,
      "count": 372,
      "type": "SCALAR"
    },
    {
      "bufferView": 2,
      "byteOffset": 4608,
      "componentType": 5126,
      "count": 192,
      "max": [
        1.0,
        1.0,
        1.0
      ],
      "min": [
        -1.0,
        -1.0,
        -1.0
      ],
      "type": "VEC3"
    },
    {
      "bufferView": 2,
      "byteOffset": 6912,
      "componentType": 5126,
      "count": 192,
      "max": [
        0.9951847195625305,
        0.9951848387718201,
        1.0
      ],
      "min": [
        -0.9951847195625305,
        -0.9951848387718201,
        -1.0
      ],
      "type": "VEC3"
    },
    {
      "bufferView": 1,
      "byteOffset": 1536,
      "componentType": 5126,
      "count": 192,
      "max": [
        1.0,
        1.0
      ],
      "min": [
        0.0,
        0.01000000536441803
      ],
      "type": "VEC2"
    },
    {
      "bufferView": 0,
      "byteOffset": 1488,
      "componentType": 5125,
      "count": 372,
      "type": "SCALAR"
    },
    {
      "bufferView": 2,
      "byteOffset": 9216,
      "componentType": 5126,
      "count": 192,
      "max": [
        1.0355597734451294,
        1.0396764278411865,
        1.069817066192627
      ],
      "min": [
        -1.0299370288848877,
        -1.0263148546218872,
        -1.069704294204712
      ],
      "type": "VEC3"
    },
    {
      "bufferView": 2,
      "byteOffset": 11520,
      "componentType": 5126,
      "count": 192,
      "max": [
        0.9822987914085388,
        0.9929137825965881,
        0.9997844099998474
      ],
      "min": [
        -0.9999624490737915,
        -0.9996801018714905,
        -0.9999858140945435
      ],
      "type": "VEC3"
    },
    {
      "bufferView": 1,
      "byteOffset": 3072,
      "componentType": 5126,
      "count": 192,
      "max": [
        1.0,
        1.0
      ],
      "min": [
        0.0,
        0.01000000536441803
      ],
      "type": "VEC2"
    },
    {
      "bufferView": 0,
      "byteOffset": 2976,
      "componentType": 5125,
      "count": 372,
      "type": "SCALAR"
    },
    {
      "bufferView": 2,
      "byteOffset": 13824,
      "componentType": 5126,
      "count": 640,
      "max": [
        0.9982854127883911,
        0.9982854127883911,
        1.0014106035232544
      ],
      "min": [
        -0.9982854723930359,
        -0.9982854723930359,
        -1.0014106035232544
      ],
      "type": "VEC3"
    },
    {
      "bufferView": 2,
      "byteOffset": 21504,
      "componentType": 5126,
      "count": 640,
      "max": [
        0.9979129433631897,
        0.9979129433631897,
        1.0
      ],
      "min": [
        -0.9979128837585449,
        -0.9979129433631897,
        -1.0
      ],
      "type": "VEC3"
    },
    {
      "bufferView": 1,
      "byteOffset": 4608,
      "componentType": 5126,
      "count": 640,
      "max": [
        1.0,
        1.0
      ],
      "min": [
        0.0,
        0.01000000536441803
      ],
      "type": "VEC2"
    },
    {
      "bufferView": 0,
      "byteOffset": 4464,
      "componentType": 5125,
      "count": 1140,
      "type": "SCALAR"
    },
    {
      "bufferView": 2,
      "byteOffset": 29184,
      "componentType": 5126,
      "count": 1984,
      "max": [
        0.9909291863441467,
        0.9302434921264648,
        1.5910329818725586
      ],
      "min": [
        -0.9909285306930542,
        -0.9302441477775574,
        -1.5910329818725586
      ],
      "type": "VEC3"
    },
    {
      "bufferView": 2,
      "byteOffset": 52992,
      "componentType": 5126,
      "count": 1984,
      "max": [
        0.992695689201355,
        0.9941202998161316,
        0.9875935316085815
      ],
      "min": [
        -0.9926958680152893,
        -0.9941199421882629,
        -0.9875937104225159
      ],
      "type": "VEC3"
    },
    {
      "bufferView": 1,
      "byteOffset": 9728,
      "componentType": 5126,
      "count": 1984,
      "max": [
        1.0000001192092896,
        1.0
      ],
      "min": [
        0.0,
        0.0
      ],
      "type": "VEC2"
    },
    {
      "bufferView": 0,
      "byteOffset": 9024,
      "componentType": 5125,
      "count": 2880,
      "type": "SCALAR"
    },
    {
      "bufferView": 2,
      "byteOffset": 76800,
      "componentType": 5126,
      "count": 24,
      "max": [
        0.2244635373353958,
        0.8265281319618225,
        0.06856410205364227
      ],
      "min": [
        -0.2244635373353958,
        -0.8265281319618225,
        -0.06856410205364227
      ],
      "type": "VEC3"
    },
    {
      "bufferView": 2,
      "byteOffset": 77088,
      "componentType": 5126,
      "count": 24,
      "max": [
        1.0,
        1.0,
        1.0
      ],
      "min": [
        -1.0,
        -1.0,
        -1.0
      ],
      "type": "VEC3"
    },
    {
      "bufferView": 1,
      "byteOffset": 25600,
      "componentType": 5126,
      "count": 24,
      "max": [
        0.875,
        1.0
      ],
      "min": [
        0.125,
        0.0
      ],
      "type": "VEC2"
    },
    {
      "bufferView": 0,
      "byteOffset": 20544,
      "componentType": 5125,
      "count": 36,
      "type": "SCALAR"
    },
    {
      "bufferView": 2,
      "byteOffset": 77376,
      "componentType": 5126,
      "count": 192,
      "max": [
        0.1054961308836937,
        0.10560453683137894,
        0.02075679413974285
      ],
      "min": [
        -0.1054961308836937,
        -0.10560453683137894,
        -0.02075679413974285
      ],
      "type": "VEC3"
    },
    {
      "bufferView": 2,
      "byteOffset": 79680,
      "componentType": 5126,
      "count": 192,
      "max": [
        0.9951946139335632,
        0.9951749444007874,
        1.0
      ],
      "min": [
        -0.9951945543289185,
        -0.9951749444007874,
        -1.0
      ],
      "type": "VEC3"
    },
    {
      "bufferView": 1,
      "byteOffset": 25792,
      "componentType": 5126,
      "count": 192,
      "max": [
        1.0,
        1.0
      ],
      "min": [
        0.0,
        0.010000020265579224
      ],
      "type": "VEC2"
    },
    {
      "bufferView": 0,
      "byteOffset": 20688,
      "componentType": 5125,
      "count": 372,
      "type": "SCALAR"
    },
    {
      "bufferView": 2,
      "byteOffset": 81984,
      "componentType": 5126,
      "count": 3072,
      "max": [
        0.9387550950050354,
        0.990412712097168,
        5.226737976074219
      ],
      "min": [
        -0.9387551546096802,
        -0.990412712097168,
        -5.226737976074219
      ],
      "type": "VEC3"
    },
    {
      "bufferView": 2,
      "byteOffset": 118848,
      "componentType": 5126,
      "count": 3072,
      "max": [
        1.0,
        1.0,
        1.0
      ],
      "min": [
        -1.0,
        -1.0,
        -1.0
      ],
      "type": "VEC3"
    },
    {
      "bufferView": 1,
      "byteOffset": 27328,
      "componentType": 5126,
      "count": 3072,
      "max": [
        1.056182861328125,
        1.00653076171875
      ],
      "min": [
        -0.05617809295654297,
        0.10266701132059097
      ],
      "type": "VEC2"
    },
    {
      "bufferView": 0,
      "byteOffset": 22176,
      "componentType": 5125,
      "count": 4596,
      "type": "SCALAR"
    }
  ],
  "asset": {
    "extras": {
      "author": "FobX_x (https://sketchfab.com/FobX_x)",
      "license": "CC-BY-4.0 (http://creativecommons.org/licenses/by/4.0/)",
      "source": "https://sketchfab.com/3d-models/star-wars-green-sword-8c09a77a111f454bbcc7ae76fcd0aa50",
      "title": "Star wars green sword"
    },
    "generator": "Sketchfab-12.67.0",
    "version": "2.0"
  },
  "bufferViews": [
    {
      "buffer": 0,
      "byteLength": 40560,
      "name": "floatBufferViews",
      "target": 34963
    },
    {
      "buffer": 0,
      "byteLength": 51904,
      "byteOffset": 40560,
      "byteStride": 8,
      "name": "floatBufferViews",
      "target": 34962
    },
    {
      "buffer": 0,
      "byteLength": 155712,
      "byteOffset": 92464,
      "byteStride": 12,
      "name": "floatBufferViews",
      "target": 34962
    }
  ],
  "buffers": [
    {
      "byteLength": 248176,
      "uri": "scene.bin"
    }
  ],
  "materials": [
    {
      "doubleSided": true,
      "name": "Sphere__0",
      "pbrMetallicRoughness": {
        "metallicFactor": 0.0,
        "roughnessFactor": 0.6
      }
    },
    {
      "doubleSided": true,
      "name": "Material.002",
      "pbrMetallicRoughness": {
        "baseColorFactor": [
          0.0,
          0.0,
          0.0,
          1.0
        ],
        "metallicFactor": 0.0
      }
    },
    {
      "doubleSided": true,
      "name": "Material.007",
      "pbrMetallicRoughness": {
        "metallicFactor": 0.0,
        "roughnessFactor": 0.7763932022500211
      }
    },
    {
      "doubleSided": true,
      "name": "Material.001",
      "pbrMetallicRoughness": {
        "baseColorFactor": [
          0.0,
          0.0,
          0.0,
          1.0
        ],
        "metallicFactor": 0.0
      }
    },
    {
      "doubleSided": true,
      "name": "Material.003",
      "pbrMetallicRoughness": {
        "baseColorFactor": [
          0.0,
          0.0,
          0.0,
          1.0
        ],
        "metallicFactor": 0.0
      }
    },
    {
      "doubleSided": true,
      "name": "Material.005",
      "pbrMetallicRoughness": {
        "baseColorFactor": [
          0.0,
          0.0,
          0.0,
          1.0
        ],
        "metallicFactor": 0.0
      }
    },
    {
      "doubleSided": true,
      "name": "Material.006",
      "pbrMetallicRoughness": {
        "baseColorFactor": [
          0.0,
          0.0,
          0.0,
          1.0
        ],
        "metallicFactor": 0.0
      }
    },
    {
      "doubleSided": true,
      "emissiveFactor": [
        0.0,
        1.0,
        0.175813
      ],
      "name": "Material.004",
      "pbrMetallicRoughness": {
        "baseColorFactor": [
          0.0,
          0.8,
          0.0197658,
          1.0
        ],
        "metallicFactor": 0.0,
        "roughnessFactor": 0.8697378791165774
      }
    }
  ],
  "meshes": [
    {
      "name": "Cylinder_Material.002_0",
      "primitives": [
        {
          "attributes": {
            "NORMAL": 1,
            "POSITION": 0,
            "TEXCOORD_0": 2
          },
          "indices": 3,
          "material": 1,
          "mode": 4
        }
      ]
    },
    {
      "name": "Cylinder.001_Material.007_0",
      "primitives": [
        {
          "attributes": {
            "NORMAL": 5,
            "POSITION": 4,
            "TEXCOORD_0": 6
          },
          "indices": 7,
          "material": 2,
          "mode": 4
        }
      ]
    },
    {
      "name": "Cylinder.002_Material.001_0",
      "primitives": [
        {
          "attributes": {
            "NORMAL": 9,
            "POSITION": 8,
            "TEXCOORD_0": 10
          },
          "indices": 11,
          "material": 3,
          "mode": 4
        }
      ]
    },
    {
      "name": "Cylinder.003_Material.003_0",
      "primitives": [
        {
          "attributes": {
            "NORMAL": 13,
            "POSITION": 12,
            "TEXCOORD_0": 14
          },
          "indices": 15,
          "material": 4,
          "mode": 4
        }
      ]
    },
    {
      "name": "Sphere__0",
      "primitives": [
        {
          "attributes": {
            "NORMAL": 17,
            "POSITION": 16,
            "TEXCOORD_0": 18
          },
          "indices": 19,
          "material": 0,
          "mode": 4
        }
      ]
    },
    {
      "name": "Cube_Material.005_0",
      "primitives": [
        {
          "attributes": {
            "NORMAL": 21,
            "POSITION": 20,
            "TEXCOORD_0": 22
          },
          "indices": 23,
          "material": 5,
          "mode": 4
        }
      ]
    },
    {
      "name": "Cylinder.004_Material.006_0",
      "primitives": [
        {
          "attributes": {
            "NORMAL": 25,
            "POSITION": 24,
            "TEXCOORD_0": 26
          },
          "indices": 27,
          "material": 6,
          "mode": 4
        }
      ]
    },
    {
      "name": "Cylinder.005_Material.004_0",
      "primitives": [
        {
          "attributes": {
            "NORMAL": 29,
            "POSITION": 28,
            "TEXCOORD_0": 30
          },
          "indices": 31,
          "material": 7,
          "mode": 4
        }
      ]
    }
  ],
  "nodes": [
    {
      "children": [
        1
      ],
      "matrix": [
        1.0,
        0.0,
        0.0,
        0.0,
        0.0,
        2.220446049250313e-16,
        -1.0,
        0.0,
        0.0,
        1.0,
        2.220446049250313e-16,
        0.0,
        0.0,
        0.0,
        0.0,
        1.0
      ],
      "name": "Sketchfab_model"
    },
    {
      "children": [
        2
      ],
      "matrix": [
        0.009999999776482582,
        0.0,
        0.0,
        0.0,
        0.0,
        0.0,
        0.009999999776482582,
        0.0,
        0.0,
        -0.009999999776482582,
        0.0,
        0.0,
        0.0,
        0.0,
        0.0,
        1.0
      ],
      "name": "d7a5e327711c4da88138f78a51f63992.fbx"
    },
    {
      "children": [
        3,
        5,
        7,
        9,
        11,
        13,
        15,
        17
      ],
      "name": "RootNode"
    },
    {
      "children": [
        4
      ],
      "matrix": [
        100.0,
        0.0,
        0.0,
        0.0,
        0.0,
        -1.629206793918314e-05,
        -99.99999999999868,
        0.0,
        0.0,
        467.9993591308532,
        -7.62467735445413e-05,
        0.0,
        0.0,
        0.0,
        0.0,
        1.0
      ],
      "name": "Cylinder"
    },
    {
      "mesh": 0,
      "name": "Cylinder_Material.002_0"
    },
    {
      "children": [
        6
      ],
      "matrix": [
        74.47074890136719,
        0.0,
        0.0,
        0.0,
        0.0,
        -1.2132825005829225e-05,
        -74.4707489013662,
        0.0,
        0.0,
        199.0499114990208,
        -3.242934681430481e-05,
        0.0,
        0.0,
        651.2852172851563,
        0.0,
        1.0
      ],
      "name": "Cylinder.001"
    },
    {
      "mesh": 1,
      "name": "Cylinder.001_Material.007_0"
    },
    {
      "children": [
        8
      ],
      "matrix": [
        100.0,
        0.0,
        0.0,
        0.0,
        0.0,
        -1.629206793918314e-05,
        -99.99999999999868,
        0.0,
        0.0,
        267.2860412597621,
        -4.35464234339941e-05,
        0.0,
        0.0,
        1104.6956787109375,
        0.0,
        1.0
      ],
      "name": "Cylinder.002"
    },
    {
      "mesh": 2,
      "name": "Cylinder.002_Material.001_0"
    },
    {
      "children": [
        10
      ],
      "matrix": [
        118.77861022949219,
        0.0,
        0.0,
        0.0,
        0.0,
        -1.9351491875806404e-05,
        -118.77861022949062,
        0.0,
        0.0,
        353.8252563476516,
        -5.7645451150149067e-05,
        0.0,
        0.0,
        -20.58248519897461,
        0.0,
        1.0
      ],
      "name": "Cylinder.003"
    },
    {
      "mesh": 3,
      "name": "Cylinder.003_Material.003_0"
    },
    {
      "children": [
        12
      ],
      "matrix": [
        100.0,
        0.0,
        0.0,
        0.0,
        0.0,
        1.9470718870540082e-05,
        99.99999999999811,
        0.0,
        0.0,
        -61.7656402587879,
        1.2026214173377944e-05,
        0.0,
        1.445119857788086,
        -429.0909729003906,
        0.8067846298217773,
        1.0
      ],
      "name": "Sphere"
    },
    {
      "mesh": 4,
      "name": "Sphere__0"
    },
    {
      "children": [
        14
      ],
      "matrix": [
        -1.6116263142679317,
        -0.004426540673343234,
        99.98701999213627,
        0.0,
        -0.0308396091439134,
        99.9999875379718,
        0.00393003098385655,
        0.0,
        -99.98700770569064,
        -0.030772268746726842,
        -1.611627478554456,
        0.0,
        -70.92071533203125,
        661.2391357421875,
        0.9178608655929565,
        1.0
      ],
      "name": "Cube"
    },
    {
      "mesh": 5,
      "name": "Cube_Material.005_0"
    },
    {
      "children": [
        16
      ],
      "matrix": [
        -1.6116263142710847,
        -0.004426539547635298,
        99.98701999213628,
        0.0,
        -0.030839585854804164,
        99.99998753797901,
        0.0039300302333841065,
        0.0,
        -99.9870077056978,
        -0.030772245472735226,
        -1.6116274785563434,
        0.0,
        -79.86312103271484,
        672.4180908203125,
        1.2790895700454712,
        1.0
      ],
      "name": "Cylinder.004"
    },
    {
      "mesh": 6,
      "name": "Cylinder.004_Material.006_0"
    },
    {
      "children": [
        18
      ],
      "matrix": [
        71.09766131650473,
        -0.6105941920668813,
        1.646240664413537,
        0.0,
        1.6558919592132477,
        0.40090972910954203,
        -71.36578210002057,
        0.0,
        1.9040646612323173,
        225.24011408737007,
        1.3095054203252299,
        0.0,
        -0.5859792232513428,
        2472.69091796875,
        1.2537181377410889,
        1.0
      ],
      "name": "Cylinder.005"
    },
    {
      "mesh": 7,
      "name": "Cylinder.005_Material.004_0"
    }
  ],
  "scene": 0,
  "scenes": [
    {
      "name": "Sketchfab_Scene",
      "nodes": [
        0
      ]
    }
  ]
}
