{
  "accessors": [
    {
      "bufferView": 2,
      "componentType": 5126,
      "count": 65532,
      "max": [
        10.880361557006836,
        3.0827243328094482,
        3.082735300064087
      ],
      "min": [
        -33.26814270019531,
        -3.0827395915985107,
        -3.0827293395996094
      ],
      "type": "VEC3"
    },
    {
      "bufferView": 2,
      "byteOffset": 786384,
      "componentType": 5126,
      "count": 65532,
      "max": [
        1.0,
        1.0,
        1.0
      ],
      "min": [
        -1.0,
        -1.0,
        -1.0
      ],
      "type": "VEC3"
    },
    {
      "bufferView": 3,
      "componentType": 5126,
      "count": 65532,
      "max": [
        0.8235294222831726,
        0.8235294222831726,
        0.8235294222831726,
        1.0
      ],
      "min": [
        0.37254902720451355,
        0.37254902720451355,
        0.37254902720451355,
        1.0
      ],
      "type": "VEC4"
    },
    {
      "bufferView": 1,
      "componentType": 5126,
      "count": 65532,
      "max": [
        0.4900001883506775,
        0.4900000989437103
      ],
      "min": [
        0.00999998115003109,
        0.009415731765329838
      ],
      "type": "VEC2"
    },
    {
      "bufferView": 0,
      "componentType": 5125,
      "count": 348453,
      "type": "SCALAR"
    },
    {
      "bufferView": 2,
      "byteOffset": 1572768,
      "componentType": 5126,
      "count": 65532,
      "max": [
        7.84663724899292,
        4.550769329071045,
        4.55077600479126
      ],
      "min": [
        -34.28531265258789,
        -4.550764083862305,
        -4.55075740814209
      ],
      "type": "VEC3"
    },
    {
      "bufferView": 2,
      "byteOffset": 2359152,
      "componentType": 5126,
      "count": 65532,
      "max": [
        1.0,
        1.0,
        1.0
      ],
      "min": [
        -1.0,
        -1.0,
        -1.0
      ],
      "type": "VEC3"
    },
    {
      "bufferView": 3,
      "byteOffset": 1048512,
      "componentType": 5126,
      "count": 65532,
      "max": [
        0.8235294222831726,
        0.8235294222831726,
        0.8235294222831726,
        1.0
      ],
      "min": [
        0.35686275362968445,
        0.35686275362968445,
        0.35686275362968445,
        1.0
      ],
      "type": "VEC4"
    },
    {
      "bufferView": 1,
      "byteOffset": 524256,
      "componentType": 5126,
      "count": 65532,
      "max": [
        0.4900001585483551,
        0.4900001287460327
      ],
      "min": [
        0.00999998115003109,
        0.009999953210353851
      ],
      "type": "VEC2"
    },
    {
      "bufferView": 0,
      "byteOffset": 1393812,
      "componentType": 5125,
      "count": 348753,
      "type": "SCALAR"
    },
    {
      "bufferView": 2,
      "byteOffset": 3145536,
      "componentType": 5126,
      "count": 19746,
      "max": [
        14.891929626464844,
        3.508211612701416,
        3.5082221031188965
      ],
      "min": [
        -31.025630950927734,
        -3.508227586746216,
        -3.5082168579101563
      ],
      "type": "VEC3"
    },
    {
      "bufferView": 2,
      "byteOffset": 3382488,
      "componentType": 5126,
      "count": 19746,
      "max": [
        1.0,
        1.0,
        1.0
      ],
      "min": [
        -1.0,
        -1.0,
        -1.0
      ],
      "type": "VEC3"
    },
    {
      "bufferView": 3,
      "byteOffset": 2097024,
      "componentType": 5126,
      "count": 19746,
      "max": [
        0.8235294222831726,
        0.8235294222831726,
        0.8235294222831726,
        1.0
      ],
      "min": [
        0.364705890417099,
        0.364705890417099,
        0.364705890417099,
        1.0
      ],
      "type": "VEC4"
    },
    {
      "bufferView": 1,
      "byteOffset": 1048512,
      "componentType": 5126,
      "count": 19746,
      "max": [
        0.5051921606063843,
        0.505189061164856
      ],
      "min": [
        0.0,
        -0.005188513081520796
      ],
      "type": "VEC2"
    },
    {
      "bufferView": 0,
      "byteOffset": 2788824,
      "componentType": 5125,
      "count": 102666,
      "type": "SCALAR"
    },
    {
      "bufferView": 2,
      "byteOffset": 3619440,
      "componentType": 5126,
      "count": 299,
      "max": [
        -30.608278274536133,
        1.2145346403121948,
        1.2179515361785889
      ],
      "min": [
        -158.6129913330078,
        -1.2145440578460693,
        -1.2179287672042847
      ],
      "type": "VEC3"
    },
    {
      "bufferView": 2,
      "byteOffset": 3623028,
      "componentType": 5126,
      "count": 299,
      "max": [
        0.690669059753418,
        0.9935030937194824,
        0.9962883591651917
      ],
      "min": [
        -1.0,
        -0.993502676486969,
        -0.9962884783744812
      ],
      "type": "VEC3"
    },
    {
      "bufferView": 3,
      "byteOffset": 2412960,
      "componentType": 5126,
      "count": 299,
      "max": [
        1.0,
        1.0,
        1.0,
        1.0
      ],
      "min": [
        1.0,
        1.0,
        1.0,
        1.0
      ],
      "type": "VEC4"
    },
    {
      "bufferView": 1,
      "byteOffset": 1206480,
      "componentType": 5126,
      "count": 299,
      "max": [
        1.0,
        1.0
      ],
      "min": [
        -5.401670932769775e-07,
        0.01000000536441803
      ],
      "type": "VEC2"
    },
    {
      "bufferView": 0,
      "byteOffset": 3199488,
      "componentType": 5125,
      "count": 1254,
      "type": "SCALAR"
    }
  ],
  "asset": {
    "extras": {
      "author": "VertexDon (https://sketchfab.com/Don42)",
      "license": "CC-BY-4.0 (http://creativecommons.org/licenses/by/4.0/)",
      "source": "https://sketchfab.com/3d-models/random-light-saber-free-14b3e8bbe1af4ffcaa208c0402d3e6d0",
      "title": "Random Light-saber [FREE]"
    },
    "generator": "Sketchfab-15.25.0",
    "version": "2.0"
  },
  "bufferViews": [
    {
      "buffer": 0,
      "byteLength": 3204504,
      "name": "floatBufferViews",
      "target": 34963
    },
    {
      "buffer": 0,
      "byteLength": 1208872,
      "byteOffset": 3204504,
      "byteStride": 8,
      "name": "floatBufferViews",
      "target": 34962
    },
    {
      "buffer": 0,
      "byteLength": 3626616,
      "byteOffset": 4413376,
      "byteStride": 12,
      "name": "floatBufferViews",
      "target": 34962
    },
    {
      "buffer": 0,
      "byteLength": 2417744,
      "byteOffset": 8039992,
      "byteStride": 16,
      "name": "floatBufferViews",
      "target": 34962
    }
  ],
  "buffers": [
    {
      "byteLength": 10457736,
      "uri": "scene.bin"
    }
  ],
  "extensionsUsed": [
    "KHR_materials_clearcoat",
    "KHR_materials_emissive_strength",
    "KHR_materials_specular"
  ],
  "materials": [
    {
      "extensions": {
        "KHR_materials_clearcoat": {
          "clearcoatFactor": 1.0,
          "clearcoatRoughnessFactor": 0.142
        }
      },
      "name": "Material.022",
      "pbrMetallicRoughness": {
        "roughnessFactor": 0.6579999999999999
      }
    },
    {
      "emissiveFactor": [
        0.023352937531483625,
        0.06856342256015371,
        1.0
      ],
      "extensions": {
        "KHR_materials_emissive_strength": {
          "emissiveStrength": 10.0
        },
        "KHR_materials_specular": {
          "specularColorFactor": [
            1.0,
            1.0,
            1.0
          ],
          "specularFactor": 0.0
        }
      },
      "name": "Material.023",
      "pbrMetallicRoughness": {
        "baseColorFactor": [
          0.0,
          0.0,
          0.0,
          1.0
        ],
        "metallicFactor": 0.0,
        "roughnessFactor": 0.0
      }
    }
  ],
  "meshes": [
    {
      "name": "Cylinder.005_Material.022_0",
      "primitives": [
        {
          "attributes": {
            "COLOR_0": 2,
            "NORMAL": 1,
            "POSITION": 0,
            "TEXCOORD_0": 3
          },
          "indices": 4,
          "material": 0,
          "mode": 4
        }
      ]
    },
    {
      "name": "Cylinder.005_Material.022_0",
      "primitives": [
        {
          "attributes": {
            "COLOR_0": 7,
            "NORMAL": 6,
            "POSITION": 5,
            "TEXCOORD_0": 8
          },
          "indices": 9,
          "material": 0,
          "mode": 4
        }
      ]
    },
    {
      "name": "Cylinder.005_Material.022_0",
      "primitives": [
        {
          "attributes": {
            "COLOR_0": 12,
            "NORMAL": 11,
            "POSITION": 10,
            "TEXCOORD_0": 13
          },
          "indices": 14,
          "material": 0,
          "mode": 4
        }
      ]
    },
    {
      "name": "Cylinder.005_Material.023_0",
      "primitives": [
        {
          "attributes": {
            "COLOR_0": 17,
            "NORMAL": 16,
            "POSITION": 15,
            "TEXCOORD_0": 18
          },
          "indices": 19,
          "material": 1,
          "mode": 4
        }
      ]
    }
  ],
  "nodes": [
    {
      "children": [
        1
      ],
      "matrix": [
        1.0,
        0.0,
        0.0,
        0.0,
        0.0,
        2.220446049250313e-16,
        -1.0,
        0.0,
        0.0,
        1.0,
        2.220446049250313e-16,
        0.0,
        0.0,
        0.0,
        0.0,
        1.0
      ],
      "name": "Sketchfab_model"
    },
    {
      "children": [
        2
      ],
      "matrix": [
        1.0,
        0.0,
        0.0,
        0.0,
        0.0,
        0.0,
        1.0,
        0.0,
        0.0,
        -1.0,
        0.0,
        0.0,
        0.0,
        0.0,
        0.0,
        1.0
      ],
      "name": "70d2f5e953214d848ab6826612c1c307.fbx"
    },
    {
      "children": [
        3
      ],
      "name": "RootNode"
    },
    {
      "children": [
        4,
        5,
        6,
        7
      ],
      "name": "Cylinder.005"
    },
    {
      "mesh": 0,
      "name": "Cylinder.005_Material.022_0"
    },
    {
      "mesh": 1,
      "name": "Cylinder.005_Material.022_0"
    },
    {
      "mesh": 2,
      "name": "Cylinder.005_Material.022_0"
    },
    {
      "mesh": 3,
      "name": "Cylinder.005_Material.023_0"
    }
  ],
  "scene": 0,
  "scenes": [
    {
      "name": "Sketchfab_Scene",
      "nodes": [
        0
      ]
    }
  ]
}
